<?xml version="1.0" encoding="utf-8" standalone="no"?>
<!DOCTYPE svg PUBLIC "-//W3C//DTD SVG 1.1//EN"
  "http://www.w3.org/Graphics/SVG/1.1/DTD/svg11.dtd">
<svg xmlns:xlink="http://www.w3.org/1999/xlink" width="504pt" height="504pt" viewBox="0 0 504 504" xmlns="http://www.w3.org/2000/svg" version="1.1">
 <metadata>
  <rdf:RDF xmlns:dc="http://purl.org/dc/elements/1.1/" xmlns:cc="http://creativecommons.org/ns#" xmlns:rdf="http://www.w3.org/1999/02/22-rdf-syntax-ns#">
   <cc:Work>
    <dc:type rdf:resource="http://purl.org/dc/dcmitype/StillImage"/>
    <dc:date>2022-01-13T03:04:06.950398</dc:date>
    <dc:format>image/svg+xml</dc:format>
    <dc:creator>
     <cc:Agent>
      <dc:title>Matplotlib v3.5.0, https://matplotlib.org/</dc:title>
     </cc:Agent>
    </dc:creator>
   </cc:Work>
  </rdf:RDF>
 </metadata>
 <defs>
  <style type="text/css">*{stroke-linejoin: round; stroke-linecap: butt}</style>
 </defs>
 <g id="figure_1">
  <g id="patch_1">
   <path d="M 0 504 
L 504 504 
L 504 0 
L 0 0 
z
" style="fill: #ffffff"/>
  </g>
  <g id="axes_1">
   <g id="patch_2">
    <path d="M 63 448.56 
L 453.6 448.56 
L 453.6 60.48 
L 63 60.48 
z
" style="fill: #ffffff"/>
   </g>
   <g id="patch_3">
    <path d="M 70.272262 448.56 
L 76.312784 448.56 
L 76.312784 271.541053 
L 70.272262 271.541053 
z
" clip-path="url(#p9950f874a0)" style="opacity: 0.4"/>
   </g>
   <g id="patch_4">
    <path d="M 76.312784 448.56 
L 82.353307 448.56 
L 82.353307 264.732632 
L 76.312784 264.732632 
z
" clip-path="url(#p9950f874a0)" style="opacity: 0.4"/>
   </g>
   <g id="patch_5">
    <path d="M 82.353307 448.56 
L 88.393829 448.56 
L 88.393829 244.307368 
L 82.353307 244.307368 
z
" clip-path="url(#p9950f874a0)" style="opacity: 0.4"/>
   </g>
   <g id="patch_6">
    <path d="M 88.393829 448.56 
L 94.434352 448.56 
L 94.434352 184.976842 
L 88.393829 184.976842 
z
" clip-path="url(#p9950f874a0)" style="opacity: 0.4"/>
   </g>
   <g id="patch_7">
    <path d="M 94.434352 448.56 
L 100.474874 448.56 
L 100.474874 169.414737 
L 94.434352 169.414737 
z
" clip-path="url(#p9950f874a0)" style="opacity: 0.4"/>
   </g>
   <g id="patch_8">
    <path d="M 100.474874 448.56 
L 106.515397 448.56 
L 106.515397 116.892632 
L 100.474874 116.892632 
z
" clip-path="url(#p9950f874a0)" style="opacity: 0.4"/>
   </g>
   <g id="patch_9">
    <path d="M 106.515397 448.56 
L 112.555919 448.56 
L 112.555919 78.96 
L 106.515397 78.96 
z
" clip-path="url(#p9950f874a0)" style="opacity: 0.4"/>
   </g>
   <g id="patch_10">
    <path d="M 112.555919 448.56 
L 118.596442 448.56 
L 118.596442 125.646316 
L 112.555919 125.646316 
z
" clip-path="url(#p9950f874a0)" style="opacity: 0.4"/>
   </g>
   <g id="patch_11">
    <path d="M 118.596442 448.56 
L 124.636964 448.56 
L 124.636964 141.208421 
L 118.596442 141.208421 
z
" clip-path="url(#p9950f874a0)" style="opacity: 0.4"/>
   </g>
   <g id="patch_12">
    <path d="M 124.636964 448.56 
L 130.677487 448.56 
L 130.677487 159.688421 
L 124.636964 159.688421 
z
" clip-path="url(#p9950f874a0)" style="opacity: 0.4"/>
   </g>
   <g id="patch_13">
    <path d="M 130.677487 448.56 
L 136.718009 448.56 
L 136.718009 219.991579 
L 130.677487 219.991579 
z
" clip-path="url(#p9950f874a0)" style="opacity: 0.4"/>
   </g>
   <g id="patch_14">
    <path d="M 136.718009 448.56 
L 142.758531 448.56 
L 142.758531 246.252632 
L 136.718009 246.252632 
z
" clip-path="url(#p9950f874a0)" style="opacity: 0.4"/>
   </g>
   <g id="patch_15">
    <path d="M 142.758531 448.56 
L 148.799054 448.56 
L 148.799054 279.322105 
L 142.758531 279.322105 
z
" clip-path="url(#p9950f874a0)" style="opacity: 0.4"/>
   </g>
   <g id="patch_16">
    <path d="M 148.799054 448.56 
L 154.839576 448.56 
L 154.839576 266.677895 
L 148.799054 266.677895 
z
" clip-path="url(#p9950f874a0)" style="opacity: 0.4"/>
   </g>
   <g id="patch_17">
    <path d="M 154.839576 448.56 
L 160.880099 448.56 
L 160.880099 344.488421 
L 154.839576 344.488421 
z
" clip-path="url(#p9950f874a0)" style="opacity: 0.4"/>
   </g>
   <g id="patch_18">
    <path d="M 160.880099 448.56 
L 166.920621 448.56 
L 166.920621 360.050526 
L 160.880099 360.050526 
z
" clip-path="url(#p9950f874a0)" style="opacity: 0.4"/>
   </g>
   <g id="patch_19">
    <path d="M 166.920621 448.56 
L 172.961144 448.56 
L 172.961144 359.077895 
L 166.920621 359.077895 
z
" clip-path="url(#p9950f874a0)" style="opacity: 0.4"/>
   </g>
   <g id="patch_20">
    <path d="M 172.961144 448.56 
L 179.001666 448.56 
L 179.001666 399.928421 
L 172.961144 399.928421 
z
" clip-path="url(#p9950f874a0)" style="opacity: 0.4"/>
   </g>
   <g id="patch_21">
    <path d="M 179.001666 448.56 
L 185.042189 448.56 
L 185.042189 406.736842 
L 179.001666 406.736842 
z
" clip-path="url(#p9950f874a0)" style="opacity: 0.4"/>
   </g>
   <g id="patch_22">
    <path d="M 185.042189 448.56 
L 191.082711 448.56 
L 191.082711 412.572632 
L 185.042189 412.572632 
z
" clip-path="url(#p9950f874a0)" style="opacity: 0.4"/>
   </g>
   <g id="patch_23">
    <path d="M 191.082711 448.56 
L 197.123234 448.56 
L 197.123234 410.627368 
L 191.082711 410.627368 
z
" clip-path="url(#p9950f874a0)" style="opacity: 0.4"/>
   </g>
   <g id="patch_24">
    <path d="M 197.123234 448.56 
L 203.163756 448.56 
L 203.163756 418.408421 
L 197.123234 418.408421 
z
" clip-path="url(#p9950f874a0)" style="opacity: 0.4"/>
   </g>
   <g id="patch_25">
    <path d="M 203.163756 448.56 
L 209.204279 448.56 
L 209.204279 418.408421 
L 203.163756 418.408421 
z
" clip-path="url(#p9950f874a0)" style="opacity: 0.4"/>
   </g>
   <g id="patch_26">
    <path d="M 209.204279 448.56 
L 215.244801 448.56 
L 215.244801 421.326316 
L 209.204279 421.326316 
z
" clip-path="url(#p9950f874a0)" style="opacity: 0.4"/>
   </g>
   <g id="patch_27">
    <path d="M 215.244801 448.56 
L 221.285324 448.56 
L 221.285324 428.134737 
L 215.244801 428.134737 
z
" clip-path="url(#p9950f874a0)" style="opacity: 0.4"/>
   </g>
   <g id="patch_28">
    <path d="M 221.285324 448.56 
L 227.325846 448.56 
L 227.325846 432.025263 
L 221.285324 432.025263 
z
" clip-path="url(#p9950f874a0)" style="opacity: 0.4"/>
   </g>
   <g id="patch_29">
    <path d="M 227.325846 448.56 
L 233.366369 448.56 
L 233.366369 434.943158 
L 227.325846 434.943158 
z
" clip-path="url(#p9950f874a0)" style="opacity: 0.4"/>
   </g>
   <g id="patch_30">
    <path d="M 233.366369 448.56 
L 239.406891 448.56 
L 239.406891 433.970526 
L 233.366369 433.970526 
z
" clip-path="url(#p9950f874a0)" style="opacity: 0.4"/>
   </g>
   <g id="patch_31">
    <path d="M 239.406891 448.56 
L 245.447414 448.56 
L 245.447414 434.943158 
L 239.406891 434.943158 
z
" clip-path="url(#p9950f874a0)" style="opacity: 0.4"/>
   </g>
   <g id="patch_32">
    <path d="M 245.447414 448.56 
L 251.487936 448.56 
L 251.487936 433.970526 
L 245.447414 433.970526 
z
" clip-path="url(#p9950f874a0)" style="opacity: 0.4"/>
   </g>
   <g id="patch_33">
    <path d="M 251.487936 448.56 
L 257.528458 448.56 
L 257.528458 431.052632 
L 251.487936 431.052632 
z
" clip-path="url(#p9950f874a0)" style="opacity: 0.4"/>
   </g>
   <g id="patch_34">
    <path d="M 257.528458 448.56 
L 263.568981 448.56 
L 263.568981 430.08 
L 257.528458 430.08 
z
" clip-path="url(#p9950f874a0)" style="opacity: 0.4"/>
   </g>
   <g id="patch_35">
    <path d="M 263.568981 448.56 
L 269.609503 448.56 
L 269.609503 421.326316 
L 263.568981 421.326316 
z
" clip-path="url(#p9950f874a0)" style="opacity: 0.4"/>
   </g>
   <g id="patch_36">
    <path d="M 269.609503 448.56 
L 275.650026 448.56 
L 275.650026 414.517895 
L 269.609503 414.517895 
z
" clip-path="url(#p9950f874a0)" style="opacity: 0.4"/>
   </g>
   <g id="patch_37">
    <path d="M 275.650026 448.56 
L 281.690548 448.56 
L 281.690548 405.764211 
L 275.650026 405.764211 
z
" clip-path="url(#p9950f874a0)" style="opacity: 0.4"/>
   </g>
   <g id="patch_38">
    <path d="M 281.690548 448.56 
L 287.731071 448.56 
L 287.731071 404.791579 
L 281.690548 404.791579 
z
" clip-path="url(#p9950f874a0)" style="opacity: 0.4"/>
   </g>
   <g id="patch_39">
    <path d="M 287.731071 448.56 
L 293.771593 448.56 
L 293.771593 422.298947 
L 287.731071 422.298947 
z
" clip-path="url(#p9950f874a0)" style="opacity: 0.4"/>
   </g>
   <g id="patch_40">
    <path d="M 293.771593 448.56 
L 299.812116 448.56 
L 299.812116 414.517895 
L 293.771593 414.517895 
z
" clip-path="url(#p9950f874a0)" style="opacity: 0.4"/>
   </g>
   <g id="patch_41">
    <path d="M 299.812116 448.56 
L 305.852638 448.56 
L 305.852638 409.654737 
L 299.812116 409.654737 
z
" clip-path="url(#p9950f874a0)" style="opacity: 0.4"/>
   </g>
   <g id="patch_42">
    <path d="M 305.852638 448.56 
L 311.893161 448.56 
L 311.893161 424.244211 
L 305.852638 424.244211 
z
" clip-path="url(#p9950f874a0)" style="opacity: 0.4"/>
   </g>
   <g id="patch_43">
    <path d="M 311.893161 448.56 
L 317.933683 448.56 
L 317.933683 415.490526 
L 311.893161 415.490526 
z
" clip-path="url(#p9950f874a0)" style="opacity: 0.4"/>
   </g>
   <g id="patch_44">
    <path d="M 317.933683 448.56 
L 323.974206 448.56 
L 323.974206 420.353684 
L 317.933683 420.353684 
z
" clip-path="url(#p9950f874a0)" style="opacity: 0.4"/>
   </g>
   <g id="patch_45">
    <path d="M 323.974206 448.56 
L 330.014728 448.56 
L 330.014728 431.052632 
L 323.974206 431.052632 
z
" clip-path="url(#p9950f874a0)" style="opacity: 0.4"/>
   </g>
   <g id="patch_46">
    <path d="M 330.014728 448.56 
L 336.055251 448.56 
L 336.055251 436.888421 
L 330.014728 436.888421 
z
" clip-path="url(#p9950f874a0)" style="opacity: 0.4"/>
   </g>
   <g id="patch_47">
    <path d="M 336.055251 448.56 
L 342.095773 448.56 
L 342.095773 437.861053 
L 336.055251 437.861053 
z
" clip-path="url(#p9950f874a0)" style="opacity: 0.4"/>
   </g>
   <g id="patch_48">
    <path d="M 342.095773 448.56 
L 348.136296 448.56 
L 348.136296 439.806316 
L 342.095773 439.806316 
z
" clip-path="url(#p9950f874a0)" style="opacity: 0.4"/>
   </g>
   <g id="patch_49">
    <path d="M 348.136296 448.56 
L 354.176818 448.56 
L 354.176818 439.806316 
L 348.136296 439.806316 
z
" clip-path="url(#p9950f874a0)" style="opacity: 0.4"/>
   </g>
   <g id="patch_50">
    <path d="M 354.176818 448.56 
L 360.217341 448.56 
L 360.217341 446.614737 
L 354.176818 446.614737 
z
" clip-path="url(#p9950f874a0)" style="opacity: 0.4"/>
   </g>
   <g id="patch_51">
    <path d="M 360.217341 448.56 
L 366.257863 448.56 
L 366.257863 447.587368 
L 360.217341 447.587368 
z
" clip-path="url(#p9950f874a0)" style="opacity: 0.4"/>
   </g>
   <g id="patch_52">
    <path d="M 366.257863 448.56 
L 372.298385 448.56 
L 372.298385 443.696842 
L 366.257863 443.696842 
z
" clip-path="url(#p9950f874a0)" style="opacity: 0.4"/>
   </g>
   <g id="patch_53">
    <path d="M 71.678422 448.56 
L 122.723924 448.56 
L 122.723924 251.848135 
L 71.678422 251.848135 
z
" clip-path="url(#p9950f874a0)" style="fill: #ff0000; opacity: 0.4"/>
   </g>
   <g id="patch_54">
    <path d="M 122.723924 448.56 
L 173.769425 448.56 
L 173.769425 326.909241 
L 122.723924 326.909241 
z
" clip-path="url(#p9950f874a0)" style="fill: #ff0000; opacity: 0.4"/>
   </g>
   <g id="patch_55">
    <path d="M 173.769425 448.56 
L 224.814927 448.56 
L 224.814927 417.500232 
L 173.769425 417.500232 
z
" clip-path="url(#p9950f874a0)" style="fill: #ff0000; opacity: 0.4"/>
   </g>
   <g id="patch_56">
    <path d="M 224.814927 448.56 
L 275.860429 448.56 
L 275.860429 383.85215 
L 224.814927 383.85215 
z
" clip-path="url(#p9950f874a0)" style="fill: #ff0000; opacity: 0.4"/>
   </g>
   <g id="patch_57">
    <path d="M 275.860429 448.56 
L 326.905931 448.56 
L 326.905931 352.792381 
L 275.860429 352.792381 
z
" clip-path="url(#p9950f874a0)" style="fill: #ff0000; opacity: 0.4"/>
   </g>
   <g id="patch_58">
    <path d="M 326.905931 448.56 
L 377.951433 448.56 
L 377.951433 417.500232 
L 326.905931 417.500232 
z
" clip-path="url(#p9950f874a0)" style="fill: #ff0000; opacity: 0.4"/>
   </g>
   <g id="matplotlib.axis_1">
    <g id="xtick_1">
     <g id="line2d_1">
      <defs>
       <path id="ma475f8f138" d="M 0 0 
L 0 3.5 
" style="stroke: #000000; stroke-width: 0.8"/>
      </defs>
      <g>
       <use xlink:href="#ma475f8f138" x="63" y="448.56" style="stroke: #000000; stroke-width: 0.8"/>
      </g>
     </g>
     <g id="text_1">
      <!-- 50 -->
      <g transform="translate(56.6375 463.158437)scale(0.1 -0.1)">
       <defs>
        <path id="DejaVuSans-35" d="M 691 4666 
L 3169 4666 
L 3169 4134 
L 1269 4134 
L 1269 2991 
Q 1406 3038 1543 3061 
Q 1681 3084 1819 3084 
Q 2600 3084 3056 2656 
Q 3513 2228 3513 1497 
Q 3513 744 3044 326 
Q 2575 -91 1722 -91 
Q 1428 -91 1123 -41 
Q 819 9 494 109 
L 494 744 
Q 775 591 1075 516 
Q 1375 441 1709 441 
Q 2250 441 2565 725 
Q 2881 1009 2881 1497 
Q 2881 1984 2565 2268 
Q 2250 2553 1709 2553 
Q 1456 2553 1204 2497 
Q 953 2441 691 2322 
L 691 4666 
z
" transform="scale(0.015625)"/>
        <path id="DejaVuSans-30" d="M 2034 4250 
Q 1547 4250 1301 3770 
Q 1056 3291 1056 2328 
Q 1056 1369 1301 889 
Q 1547 409 2034 409 
Q 2525 409 2770 889 
Q 3016 1369 3016 2328 
Q 3016 3291 2770 3770 
Q 2525 4250 2034 4250 
z
M 2034 4750 
Q 2819 4750 3233 4129 
Q 3647 3509 3647 2328 
Q 3647 1150 3233 529 
Q 2819 -91 2034 -91 
Q 1250 -91 836 529 
Q 422 1150 422 2328 
Q 422 3509 836 4129 
Q 1250 4750 2034 4750 
z
" transform="scale(0.015625)"/>
       </defs>
       <use xlink:href="#DejaVuSans-35"/>
       <use xlink:href="#DejaVuSans-30" x="63.623047"/>
      </g>
     </g>
    </g>
    <g id="xtick_2">
     <g id="line2d_2">
      <g>
       <use xlink:href="#ma475f8f138" x="134.018182" y="448.56" style="stroke: #000000; stroke-width: 0.8"/>
      </g>
     </g>
     <g id="text_2">
      <!-- 100 -->
      <g transform="translate(124.474432 463.158437)scale(0.1 -0.1)">
       <defs>
        <path id="DejaVuSans-31" d="M 794 531 
L 1825 531 
L 1825 4091 
L 703 3866 
L 703 4441 
L 1819 4666 
L 2450 4666 
L 2450 531 
L 3481 531 
L 3481 0 
L 794 0 
L 794 531 
z
" transform="scale(0.015625)"/>
       </defs>
       <use xlink:href="#DejaVuSans-31"/>
       <use xlink:href="#DejaVuSans-30" x="63.623047"/>
       <use xlink:href="#DejaVuSans-30" x="127.246094"/>
      </g>
     </g>
    </g>
    <g id="xtick_3">
     <g id="line2d_3">
      <g>
       <use xlink:href="#ma475f8f138" x="205.036364" y="448.56" style="stroke: #000000; stroke-width: 0.8"/>
      </g>
     </g>
     <g id="text_3">
      <!-- 150 -->
      <g transform="translate(195.492614 463.158437)scale(0.1 -0.1)">
       <use xlink:href="#DejaVuSans-31"/>
       <use xlink:href="#DejaVuSans-35" x="63.623047"/>
       <use xlink:href="#DejaVuSans-30" x="127.246094"/>
      </g>
     </g>
    </g>
    <g id="xtick_4">
     <g id="line2d_4">
      <g>
       <use xlink:href="#ma475f8f138" x="276.054545" y="448.56" style="stroke: #000000; stroke-width: 0.8"/>
      </g>
     </g>
     <g id="text_4">
      <!-- 200 -->
      <g transform="translate(266.510795 463.158437)scale(0.1 -0.1)">
       <defs>
        <path id="DejaVuSans-32" d="M 1228 531 
L 3431 531 
L 3431 0 
L 469 0 
L 469 531 
Q 828 903 1448 1529 
Q 2069 2156 2228 2338 
Q 2531 2678 2651 2914 
Q 2772 3150 2772 3378 
Q 2772 3750 2511 3984 
Q 2250 4219 1831 4219 
Q 1534 4219 1204 4116 
Q 875 4013 500 3803 
L 500 4441 
Q 881 4594 1212 4672 
Q 1544 4750 1819 4750 
Q 2544 4750 2975 4387 
Q 3406 4025 3406 3419 
Q 3406 3131 3298 2873 
Q 3191 2616 2906 2266 
Q 2828 2175 2409 1742 
Q 1991 1309 1228 531 
z
" transform="scale(0.015625)"/>
       </defs>
       <use xlink:href="#DejaVuSans-32"/>
       <use xlink:href="#DejaVuSans-30" x="63.623047"/>
       <use xlink:href="#DejaVuSans-30" x="127.246094"/>
      </g>
     </g>
    </g>
    <g id="xtick_5">
     <g id="line2d_5">
      <g>
       <use xlink:href="#ma475f8f138" x="347.072727" y="448.56" style="stroke: #000000; stroke-width: 0.8"/>
      </g>
     </g>
     <g id="text_5">
      <!-- 250 -->
      <g transform="translate(337.528977 463.158437)scale(0.1 -0.1)">
       <use xlink:href="#DejaVuSans-32"/>
       <use xlink:href="#DejaVuSans-35" x="63.623047"/>
       <use xlink:href="#DejaVuSans-30" x="127.246094"/>
      </g>
     </g>
    </g>
    <g id="xtick_6">
     <g id="line2d_6">
      <g>
       <use xlink:href="#ma475f8f138" x="418.090909" y="448.56" style="stroke: #000000; stroke-width: 0.8"/>
      </g>
     </g>
     <g id="text_6">
      <!-- 300 -->
      <g transform="translate(408.547159 463.158437)scale(0.1 -0.1)">
       <defs>
        <path id="DejaVuSans-33" d="M 2597 2516 
Q 3050 2419 3304 2112 
Q 3559 1806 3559 1356 
Q 3559 666 3084 287 
Q 2609 -91 1734 -91 
Q 1441 -91 1130 -33 
Q 819 25 488 141 
L 488 750 
Q 750 597 1062 519 
Q 1375 441 1716 441 
Q 2309 441 2620 675 
Q 2931 909 2931 1356 
Q 2931 1769 2642 2001 
Q 2353 2234 1838 2234 
L 1294 2234 
L 1294 2753 
L 1863 2753 
Q 2328 2753 2575 2939 
Q 2822 3125 2822 3475 
Q 2822 3834 2567 4026 
Q 2313 4219 1838 4219 
Q 1578 4219 1281 4162 
Q 984 4106 628 3988 
L 628 4550 
Q 988 4650 1302 4700 
Q 1616 4750 1894 4750 
Q 2613 4750 3031 4423 
Q 3450 4097 3450 3541 
Q 3450 3153 3228 2886 
Q 3006 2619 2597 2516 
z
" transform="scale(0.015625)"/>
       </defs>
       <use xlink:href="#DejaVuSans-33"/>
       <use xlink:href="#DejaVuSans-30" x="63.623047"/>
       <use xlink:href="#DejaVuSans-30" x="127.246094"/>
      </g>
     </g>
    </g>
    <g id="text_7">
     <!-- Average Glucose Level -->
     <g transform="translate(190.100625 478.35625)scale(0.12 -0.12)">
      <defs>
       <path id="DejaVuSans-41" d="M 2188 4044 
L 1331 1722 
L 3047 1722 
L 2188 4044 
z
M 1831 4666 
L 2547 4666 
L 4325 0 
L 3669 0 
L 3244 1197 
L 1141 1197 
L 716 0 
L 50 0 
L 1831 4666 
z
" transform="scale(0.015625)"/>
       <path id="DejaVuSans-76" d="M 191 3500 
L 800 3500 
L 1894 563 
L 2988 3500 
L 3597 3500 
L 2284 0 
L 1503 0 
L 191 3500 
z
" transform="scale(0.015625)"/>
       <path id="DejaVuSans-65" d="M 3597 1894 
L 3597 1613 
L 953 1613 
Q 991 1019 1311 708 
Q 1631 397 2203 397 
Q 2534 397 2845 478 
Q 3156 559 3463 722 
L 3463 178 
Q 3153 47 2828 -22 
Q 2503 -91 2169 -91 
Q 1331 -91 842 396 
Q 353 884 353 1716 
Q 353 2575 817 3079 
Q 1281 3584 2069 3584 
Q 2775 3584 3186 3129 
Q 3597 2675 3597 1894 
z
M 3022 2063 
Q 3016 2534 2758 2815 
Q 2500 3097 2075 3097 
Q 1594 3097 1305 2825 
Q 1016 2553 972 2059 
L 3022 2063 
z
" transform="scale(0.015625)"/>
       <path id="DejaVuSans-72" d="M 2631 2963 
Q 2534 3019 2420 3045 
Q 2306 3072 2169 3072 
Q 1681 3072 1420 2755 
Q 1159 2438 1159 1844 
L 1159 0 
L 581 0 
L 581 3500 
L 1159 3500 
L 1159 2956 
Q 1341 3275 1631 3429 
Q 1922 3584 2338 3584 
Q 2397 3584 2469 3576 
Q 2541 3569 2628 3553 
L 2631 2963 
z
" transform="scale(0.015625)"/>
       <path id="DejaVuSans-61" d="M 2194 1759 
Q 1497 1759 1228 1600 
Q 959 1441 959 1056 
Q 959 750 1161 570 
Q 1363 391 1709 391 
Q 2188 391 2477 730 
Q 2766 1069 2766 1631 
L 2766 1759 
L 2194 1759 
z
M 3341 1997 
L 3341 0 
L 2766 0 
L 2766 531 
Q 2569 213 2275 61 
Q 1981 -91 1556 -91 
Q 1019 -91 701 211 
Q 384 513 384 1019 
Q 384 1609 779 1909 
Q 1175 2209 1959 2209 
L 2766 2209 
L 2766 2266 
Q 2766 2663 2505 2880 
Q 2244 3097 1772 3097 
Q 1472 3097 1187 3025 
Q 903 2953 641 2809 
L 641 3341 
Q 956 3463 1253 3523 
Q 1550 3584 1831 3584 
Q 2591 3584 2966 3190 
Q 3341 2797 3341 1997 
z
" transform="scale(0.015625)"/>
       <path id="DejaVuSans-67" d="M 2906 1791 
Q 2906 2416 2648 2759 
Q 2391 3103 1925 3103 
Q 1463 3103 1205 2759 
Q 947 2416 947 1791 
Q 947 1169 1205 825 
Q 1463 481 1925 481 
Q 2391 481 2648 825 
Q 2906 1169 2906 1791 
z
M 3481 434 
Q 3481 -459 3084 -895 
Q 2688 -1331 1869 -1331 
Q 1566 -1331 1297 -1286 
Q 1028 -1241 775 -1147 
L 775 -588 
Q 1028 -725 1275 -790 
Q 1522 -856 1778 -856 
Q 2344 -856 2625 -561 
Q 2906 -266 2906 331 
L 2906 616 
Q 2728 306 2450 153 
Q 2172 0 1784 0 
Q 1141 0 747 490 
Q 353 981 353 1791 
Q 353 2603 747 3093 
Q 1141 3584 1784 3584 
Q 2172 3584 2450 3431 
Q 2728 3278 2906 2969 
L 2906 3500 
L 3481 3500 
L 3481 434 
z
" transform="scale(0.015625)"/>
       <path id="DejaVuSans-20" transform="scale(0.015625)"/>
       <path id="DejaVuSans-47" d="M 3809 666 
L 3809 1919 
L 2778 1919 
L 2778 2438 
L 4434 2438 
L 4434 434 
Q 4069 175 3628 42 
Q 3188 -91 2688 -91 
Q 1594 -91 976 548 
Q 359 1188 359 2328 
Q 359 3472 976 4111 
Q 1594 4750 2688 4750 
Q 3144 4750 3555 4637 
Q 3966 4525 4313 4306 
L 4313 3634 
Q 3963 3931 3569 4081 
Q 3175 4231 2741 4231 
Q 1884 4231 1454 3753 
Q 1025 3275 1025 2328 
Q 1025 1384 1454 906 
Q 1884 428 2741 428 
Q 3075 428 3337 486 
Q 3600 544 3809 666 
z
" transform="scale(0.015625)"/>
       <path id="DejaVuSans-6c" d="M 603 4863 
L 1178 4863 
L 1178 0 
L 603 0 
L 603 4863 
z
" transform="scale(0.015625)"/>
       <path id="DejaVuSans-75" d="M 544 1381 
L 544 3500 
L 1119 3500 
L 1119 1403 
Q 1119 906 1312 657 
Q 1506 409 1894 409 
Q 2359 409 2629 706 
Q 2900 1003 2900 1516 
L 2900 3500 
L 3475 3500 
L 3475 0 
L 2900 0 
L 2900 538 
Q 2691 219 2414 64 
Q 2138 -91 1772 -91 
Q 1169 -91 856 284 
Q 544 659 544 1381 
z
M 1991 3584 
L 1991 3584 
z
" transform="scale(0.015625)"/>
       <path id="DejaVuSans-63" d="M 3122 3366 
L 3122 2828 
Q 2878 2963 2633 3030 
Q 2388 3097 2138 3097 
Q 1578 3097 1268 2742 
Q 959 2388 959 1747 
Q 959 1106 1268 751 
Q 1578 397 2138 397 
Q 2388 397 2633 464 
Q 2878 531 3122 666 
L 3122 134 
Q 2881 22 2623 -34 
Q 2366 -91 2075 -91 
Q 1284 -91 818 406 
Q 353 903 353 1747 
Q 353 2603 823 3093 
Q 1294 3584 2113 3584 
Q 2378 3584 2631 3529 
Q 2884 3475 3122 3366 
z
" transform="scale(0.015625)"/>
       <path id="DejaVuSans-6f" d="M 1959 3097 
Q 1497 3097 1228 2736 
Q 959 2375 959 1747 
Q 959 1119 1226 758 
Q 1494 397 1959 397 
Q 2419 397 2687 759 
Q 2956 1122 2956 1747 
Q 2956 2369 2687 2733 
Q 2419 3097 1959 3097 
z
M 1959 3584 
Q 2709 3584 3137 3096 
Q 3566 2609 3566 1747 
Q 3566 888 3137 398 
Q 2709 -91 1959 -91 
Q 1206 -91 779 398 
Q 353 888 353 1747 
Q 353 2609 779 3096 
Q 1206 3584 1959 3584 
z
" transform="scale(0.015625)"/>
       <path id="DejaVuSans-73" d="M 2834 3397 
L 2834 2853 
Q 2591 2978 2328 3040 
Q 2066 3103 1784 3103 
Q 1356 3103 1142 2972 
Q 928 2841 928 2578 
Q 928 2378 1081 2264 
Q 1234 2150 1697 2047 
L 1894 2003 
Q 2506 1872 2764 1633 
Q 3022 1394 3022 966 
Q 3022 478 2636 193 
Q 2250 -91 1575 -91 
Q 1294 -91 989 -36 
Q 684 19 347 128 
L 347 722 
Q 666 556 975 473 
Q 1284 391 1588 391 
Q 1994 391 2212 530 
Q 2431 669 2431 922 
Q 2431 1156 2273 1281 
Q 2116 1406 1581 1522 
L 1381 1569 
Q 847 1681 609 1914 
Q 372 2147 372 2553 
Q 372 3047 722 3315 
Q 1072 3584 1716 3584 
Q 2034 3584 2315 3537 
Q 2597 3491 2834 3397 
z
" transform="scale(0.015625)"/>
       <path id="DejaVuSans-4c" d="M 628 4666 
L 1259 4666 
L 1259 531 
L 3531 531 
L 3531 0 
L 628 0 
L 628 4666 
z
" transform="scale(0.015625)"/>
      </defs>
      <use xlink:href="#DejaVuSans-41"/>
      <use xlink:href="#DejaVuSans-76" x="62.533203"/>
      <use xlink:href="#DejaVuSans-65" x="121.712891"/>
      <use xlink:href="#DejaVuSans-72" x="183.236328"/>
      <use xlink:href="#DejaVuSans-61" x="224.349609"/>
      <use xlink:href="#DejaVuSans-67" x="285.628906"/>
      <use xlink:href="#DejaVuSans-65" x="349.105469"/>
      <use xlink:href="#DejaVuSans-20" x="410.628906"/>
      <use xlink:href="#DejaVuSans-47" x="442.416016"/>
      <use xlink:href="#DejaVuSans-6c" x="519.90625"/>
      <use xlink:href="#DejaVuSans-75" x="547.689453"/>
      <use xlink:href="#DejaVuSans-63" x="611.068359"/>
      <use xlink:href="#DejaVuSans-6f" x="666.048828"/>
      <use xlink:href="#DejaVuSans-73" x="727.230469"/>
      <use xlink:href="#DejaVuSans-65" x="779.330078"/>
      <use xlink:href="#DejaVuSans-20" x="840.853516"/>
      <use xlink:href="#DejaVuSans-4c" x="872.640625"/>
      <use xlink:href="#DejaVuSans-65" x="926.603516"/>
      <use xlink:href="#DejaVuSans-76" x="988.126953"/>
      <use xlink:href="#DejaVuSans-65" x="1047.306641"/>
      <use xlink:href="#DejaVuSans-6c" x="1108.830078"/>
     </g>
    </g>
   </g>
   <g id="matplotlib.axis_2">
    <g id="ytick_1">
     <g id="line2d_7">
      <defs>
       <path id="m4042afebb3" d="M 0 0 
L -3.5 0 
" style="stroke: #000000; stroke-width: 0.8"/>
      </defs>
      <g>
       <use xlink:href="#m4042afebb3" x="63" y="448.56" style="stroke: #000000; stroke-width: 0.8"/>
      </g>
     </g>
     <g id="text_8">
      <!-- 0.0000 -->
      <g transform="translate(21.009375 452.359219)scale(0.1 -0.1)">
       <defs>
        <path id="DejaVuSans-2e" d="M 684 794 
L 1344 794 
L 1344 0 
L 684 0 
L 684 794 
z
" transform="scale(0.015625)"/>
       </defs>
       <use xlink:href="#DejaVuSans-30"/>
       <use xlink:href="#DejaVuSans-2e" x="63.623047"/>
       <use xlink:href="#DejaVuSans-30" x="95.410156"/>
       <use xlink:href="#DejaVuSans-30" x="159.033203"/>
       <use xlink:href="#DejaVuSans-30" x="222.65625"/>
       <use xlink:href="#DejaVuSans-30" x="286.279297"/>
      </g>
     </g>
    </g>
    <g id="ytick_2">
     <g id="line2d_8">
      <g>
       <use xlink:href="#m4042afebb3" x="63" y="399.957211" style="stroke: #000000; stroke-width: 0.8"/>
      </g>
     </g>
     <g id="text_9">
      <!-- 0.0025 -->
      <g transform="translate(21.009375 403.75643)scale(0.1 -0.1)">
       <use xlink:href="#DejaVuSans-30"/>
       <use xlink:href="#DejaVuSans-2e" x="63.623047"/>
       <use xlink:href="#DejaVuSans-30" x="95.410156"/>
       <use xlink:href="#DejaVuSans-30" x="159.033203"/>
       <use xlink:href="#DejaVuSans-32" x="222.65625"/>
       <use xlink:href="#DejaVuSans-35" x="286.279297"/>
      </g>
     </g>
    </g>
    <g id="ytick_3">
     <g id="line2d_9">
      <g>
       <use xlink:href="#m4042afebb3" x="63" y="351.354422" style="stroke: #000000; stroke-width: 0.8"/>
      </g>
     </g>
     <g id="text_10">
      <!-- 0.0050 -->
      <g transform="translate(21.009375 355.153641)scale(0.1 -0.1)">
       <use xlink:href="#DejaVuSans-30"/>
       <use xlink:href="#DejaVuSans-2e" x="63.623047"/>
       <use xlink:href="#DejaVuSans-30" x="95.410156"/>
       <use xlink:href="#DejaVuSans-30" x="159.033203"/>
       <use xlink:href="#DejaVuSans-35" x="222.65625"/>
       <use xlink:href="#DejaVuSans-30" x="286.279297"/>
      </g>
     </g>
    </g>
    <g id="ytick_4">
     <g id="line2d_10">
      <g>
       <use xlink:href="#m4042afebb3" x="63" y="302.751633" style="stroke: #000000; stroke-width: 0.8"/>
      </g>
     </g>
     <g id="text_11">
      <!-- 0.0075 -->
      <g transform="translate(21.009375 306.550852)scale(0.1 -0.1)">
       <defs>
        <path id="DejaVuSans-37" d="M 525 4666 
L 3525 4666 
L 3525 4397 
L 1831 0 
L 1172 0 
L 2766 4134 
L 525 4134 
L 525 4666 
z
" transform="scale(0.015625)"/>
       </defs>
       <use xlink:href="#DejaVuSans-30"/>
       <use xlink:href="#DejaVuSans-2e" x="63.623047"/>
       <use xlink:href="#DejaVuSans-30" x="95.410156"/>
       <use xlink:href="#DejaVuSans-30" x="159.033203"/>
       <use xlink:href="#DejaVuSans-37" x="222.65625"/>
       <use xlink:href="#DejaVuSans-35" x="286.279297"/>
      </g>
     </g>
    </g>
    <g id="ytick_5">
     <g id="line2d_11">
      <g>
       <use xlink:href="#m4042afebb3" x="63" y="254.148844" style="stroke: #000000; stroke-width: 0.8"/>
      </g>
     </g>
     <g id="text_12">
      <!-- 0.0100 -->
      <g transform="translate(21.009375 257.948063)scale(0.1 -0.1)">
       <use xlink:href="#DejaVuSans-30"/>
       <use xlink:href="#DejaVuSans-2e" x="63.623047"/>
       <use xlink:href="#DejaVuSans-30" x="95.410156"/>
       <use xlink:href="#DejaVuSans-31" x="159.033203"/>
       <use xlink:href="#DejaVuSans-30" x="222.65625"/>
       <use xlink:href="#DejaVuSans-30" x="286.279297"/>
      </g>
     </g>
    </g>
    <g id="ytick_6">
     <g id="line2d_12">
      <g>
       <use xlink:href="#m4042afebb3" x="63" y="205.546055" style="stroke: #000000; stroke-width: 0.8"/>
      </g>
     </g>
     <g id="text_13">
      <!-- 0.0125 -->
      <g transform="translate(21.009375 209.345273)scale(0.1 -0.1)">
       <use xlink:href="#DejaVuSans-30"/>
       <use xlink:href="#DejaVuSans-2e" x="63.623047"/>
       <use xlink:href="#DejaVuSans-30" x="95.410156"/>
       <use xlink:href="#DejaVuSans-31" x="159.033203"/>
       <use xlink:href="#DejaVuSans-32" x="222.65625"/>
       <use xlink:href="#DejaVuSans-35" x="286.279297"/>
      </g>
     </g>
    </g>
    <g id="ytick_7">
     <g id="line2d_13">
      <g>
       <use xlink:href="#m4042afebb3" x="63" y="156.943266" style="stroke: #000000; stroke-width: 0.8"/>
      </g>
     </g>
     <g id="text_14">
      <!-- 0.0150 -->
      <g transform="translate(21.009375 160.742484)scale(0.1 -0.1)">
       <use xlink:href="#DejaVuSans-30"/>
       <use xlink:href="#DejaVuSans-2e" x="63.623047"/>
       <use xlink:href="#DejaVuSans-30" x="95.410156"/>
       <use xlink:href="#DejaVuSans-31" x="159.033203"/>
       <use xlink:href="#DejaVuSans-35" x="222.65625"/>
       <use xlink:href="#DejaVuSans-30" x="286.279297"/>
      </g>
     </g>
    </g>
    <g id="ytick_8">
     <g id="line2d_14">
      <g>
       <use xlink:href="#m4042afebb3" x="63" y="108.340477" style="stroke: #000000; stroke-width: 0.8"/>
      </g>
     </g>
     <g id="text_15">
      <!-- 0.0175 -->
      <g transform="translate(21.009375 112.139695)scale(0.1 -0.1)">
       <use xlink:href="#DejaVuSans-30"/>
       <use xlink:href="#DejaVuSans-2e" x="63.623047"/>
       <use xlink:href="#DejaVuSans-30" x="95.410156"/>
       <use xlink:href="#DejaVuSans-31" x="159.033203"/>
       <use xlink:href="#DejaVuSans-37" x="222.65625"/>
       <use xlink:href="#DejaVuSans-35" x="286.279297"/>
      </g>
     </g>
    </g>
    <g id="text_16">
     <!-- Density -->
     <g transform="translate(14.51375 277.330312)rotate(-90)scale(0.12 -0.12)">
      <defs>
       <path id="DejaVuSans-44" d="M 1259 4147 
L 1259 519 
L 2022 519 
Q 2988 519 3436 956 
Q 3884 1394 3884 2338 
Q 3884 3275 3436 3711 
Q 2988 4147 2022 4147 
L 1259 4147 
z
M 628 4666 
L 1925 4666 
Q 3281 4666 3915 4102 
Q 4550 3538 4550 2338 
Q 4550 1131 3912 565 
Q 3275 0 1925 0 
L 628 0 
L 628 4666 
z
" transform="scale(0.015625)"/>
       <path id="DejaVuSans-6e" d="M 3513 2113 
L 3513 0 
L 2938 0 
L 2938 2094 
Q 2938 2591 2744 2837 
Q 2550 3084 2163 3084 
Q 1697 3084 1428 2787 
Q 1159 2491 1159 1978 
L 1159 0 
L 581 0 
L 581 3500 
L 1159 3500 
L 1159 2956 
Q 1366 3272 1645 3428 
Q 1925 3584 2291 3584 
Q 2894 3584 3203 3211 
Q 3513 2838 3513 2113 
z
" transform="scale(0.015625)"/>
       <path id="DejaVuSans-69" d="M 603 3500 
L 1178 3500 
L 1178 0 
L 603 0 
L 603 3500 
z
M 603 4863 
L 1178 4863 
L 1178 4134 
L 603 4134 
L 603 4863 
z
" transform="scale(0.015625)"/>
       <path id="DejaVuSans-74" d="M 1172 4494 
L 1172 3500 
L 2356 3500 
L 2356 3053 
L 1172 3053 
L 1172 1153 
Q 1172 725 1289 603 
Q 1406 481 1766 481 
L 2356 481 
L 2356 0 
L 1766 0 
Q 1100 0 847 248 
Q 594 497 594 1153 
L 594 3053 
L 172 3053 
L 172 3500 
L 594 3500 
L 594 4494 
L 1172 4494 
z
" transform="scale(0.015625)"/>
       <path id="DejaVuSans-79" d="M 2059 -325 
Q 1816 -950 1584 -1140 
Q 1353 -1331 966 -1331 
L 506 -1331 
L 506 -850 
L 844 -850 
Q 1081 -850 1212 -737 
Q 1344 -625 1503 -206 
L 1606 56 
L 191 3500 
L 800 3500 
L 1894 763 
L 2988 3500 
L 3597 3500 
L 2059 -325 
z
" transform="scale(0.015625)"/>
      </defs>
      <use xlink:href="#DejaVuSans-44"/>
      <use xlink:href="#DejaVuSans-65" x="77.001953"/>
      <use xlink:href="#DejaVuSans-6e" x="138.525391"/>
      <use xlink:href="#DejaVuSans-73" x="201.904297"/>
      <use xlink:href="#DejaVuSans-69" x="254.003906"/>
      <use xlink:href="#DejaVuSans-74" x="281.787109"/>
      <use xlink:href="#DejaVuSans-79" x="320.996094"/>
     </g>
    </g>
   </g>
   <g id="line2d_15">
    <path d="M 36.500988 448.32078 
L 40.215246 447.885627 
L 42.072375 447.469232 
L 43.929504 446.838641 
L 45.786633 445.908943 
L 47.643762 444.57443 
L 49.500891 442.709204 
L 51.35802 440.170465 
L 53.215149 436.804994 
L 55.072278 432.458952 
L 56.929407 426.99055 
L 58.786536 420.284464 
L 60.643665 412.266309 
L 62.500794 402.915029 
L 64.357923 392.271072 
L 66.215052 380.438552 
L 68.072181 367.580447 
L 71.786439 339.658217 
L 79.214955 281.636541 
L 82.929213 254.439267 
L 86.643471 229.266039 
L 90.357729 206.127203 
L 94.071987 185.045637 
L 95.929116 175.374468 
L 97.786245 166.391605 
L 99.643374 158.209179 
L 101.500503 150.954259 
L 103.357632 144.75773 
L 105.214761 139.742252 
L 107.07189 136.010916 
L 108.929019 133.637999 
L 110.786148 132.662853 
L 112.643277 133.087406 
L 114.500406 134.877174 
L 116.357535 137.965167 
L 118.214664 142.257714 
L 120.071793 147.64115 
L 121.928922 153.988401 
L 123.786051 161.164842 
L 125.64318 169.033172 
L 129.357438 186.306226 
L 134.928825 214.225482 
L 142.357341 251.52341 
L 147.928728 278.289385 
L 153.500115 303.947038 
L 157.214373 320.293403 
L 160.928631 335.7576 
L 164.642889 350.071746 
L 168.357147 363.033129 
L 170.214276 368.964679 
L 172.071405 374.514042 
L 173.928534 379.670957 
L 175.785663 384.426433 
L 177.642792 388.773831 
L 179.499921 392.710765 
L 181.35705 396.241297 
L 183.214179 399.377819 
L 185.071308 402.142095 
L 186.928437 404.565132 
L 188.785566 406.685828 
L 190.642695 408.548594 
L 192.499824 410.200358 
L 196.214082 413.052558 
L 199.92834 415.558589 
L 209.213985 421.418218 
L 214.785372 424.804405 
L 218.49963 426.909339 
L 222.213888 428.804145 
L 225.928146 430.414256 
L 229.642404 431.677693 
L 233.356662 432.552091 
L 237.07092 433.014562 
L 240.785178 433.053781 
L 244.499436 432.65829 
L 246.356565 432.29167 
L 248.213694 431.8082 
L 250.070823 431.204539 
L 251.927952 430.478045 
L 255.64221 428.655494 
L 259.356468 426.373229 
L 263.070726 423.741295 
L 270.499242 418.300543 
L 274.2135 416.042057 
L 276.070629 415.135176 
L 277.927758 414.400563 
L 279.784887 413.844916 
L 281.642016 413.465608 
L 283.499145 413.251583 
L 285.356274 413.185122 
L 289.070532 413.405449 
L 292.78479 413.947563 
L 298.356177 415.096491 
L 302.070435 416.035942 
L 305.784693 417.150242 
L 309.498951 418.495855 
L 313.213209 420.126734 
L 316.927467 422.078178 
L 320.641725 424.346011 
L 326.213112 428.18319 
L 333.641628 433.3779 
L 337.355886 435.696771 
L 341.070144 437.738921 
L 344.784402 439.512729 
L 348.49866 441.056993 
L 352.212918 442.40762 
L 355.927176 443.580073 
L 359.641434 444.57412 
L 363.355692 445.392009 
L 368.927079 446.335682 
L 376.355595 447.253069 
L 383.784111 447.926815 
L 391.212627 448.335795 
L 398.641143 448.505645 
L 406.06966 448.551235 
L 406.06966 448.551235 
" clip-path="url(#p9950f874a0)" style="fill: none; stroke: #000000; stroke-width: 1.5; stroke-linecap: square"/>
   </g>
   <g id="line2d_16">
    <path d="M -1 447.233628 
L 2.36637 446.774878 
L 7.282361 445.83758 
L 12.198351 444.501049 
L 14.656346 443.645423 
L 17.114341 442.642525 
L 19.572336 441.474395 
L 22.030331 440.122369 
L 24.488326 438.567358 
L 26.946321 436.790175 
L 29.404317 434.77193 
L 31.862312 432.49446 
L 34.320307 429.940825 
L 36.778302 427.095819 
L 39.236297 423.946524 
L 41.694292 420.482861 
L 44.152287 416.698136 
L 46.610282 412.589571 
L 49.068277 408.158773 
L 51.526272 403.412159 
L 53.984268 398.361283 
L 58.900258 387.419933 
L 63.816248 375.535814 
L 68.732238 362.994281 
L 81.022214 331.241891 
L 85.938204 319.508898 
L 88.396199 314.066973 
L 90.854194 308.975002 
L 93.312189 304.278666 
L 95.770184 300.019144 
L 98.228179 296.232482 
L 100.686175 292.949094 
L 103.14417 290.19338 
L 105.602165 287.98349 
L 108.06016 286.331222 
L 110.518155 285.242036 
L 112.97615 284.715204 
L 115.434145 284.74405 
L 117.89214 285.316294 
L 120.350135 286.414464 
L 122.80813 288.016377 
L 125.266126 290.095652 
L 127.724121 292.622266 
L 130.182116 295.56311 
L 132.640111 298.882556 
L 135.098106 302.54302 
L 137.556101 306.505495 
L 140.014096 310.730076 
L 144.930086 319.804321 
L 149.846077 329.4462 
L 164.594047 358.83807 
L 169.510037 367.95476 
L 174.426028 376.401368 
L 176.884023 380.327446 
L 179.342018 384.035275 
L 181.800013 387.512345 
L 184.258008 390.748047 
L 186.716003 393.733534 
L 189.173998 396.46158 
L 191.631993 398.926456 
L 194.089988 401.123803 
L 196.547984 403.050537 
L 199.005979 404.704767 
L 201.463974 406.085739 
L 203.921969 407.193803 
L 206.379964 408.03041 
L 208.837959 408.598127 
L 211.295954 408.900668 
L 213.753949 408.942953 
L 216.211944 408.731163 
L 218.66994 408.272807 
L 221.127935 407.576791 
L 223.58593 406.65347 
L 226.043925 405.514691 
L 228.50192 404.173823 
L 230.959915 402.645754 
L 233.41791 400.946864 
L 238.3339 397.109241 
L 243.249891 392.818926 
L 250.623876 385.920561 
L 257.997861 379.028219 
L 262.913851 374.746959 
L 267.829842 370.918215 
L 270.287837 369.221518 
L 272.745832 367.692368 
L 275.203827 366.345319 
L 277.661822 365.192955 
L 280.119817 364.2458 
L 282.577812 363.512255 
L 285.035807 362.998573 
L 287.493802 362.708858 
L 289.951798 362.64509 
L 292.409793 362.807187 
L 294.867788 363.19308 
L 297.325783 363.798812 
L 299.783778 364.618653 
L 302.241773 365.645238 
L 304.699768 366.869704 
L 307.157763 368.281848 
L 309.615758 369.870287 
L 312.073753 371.622622 
L 316.989744 375.565316 
L 321.905734 379.996803 
L 326.821724 384.798315 
L 334.195709 392.433912 
L 348.94368 407.908924 
L 353.85967 412.787649 
L 358.77566 417.40777 
L 363.691651 421.719541 
L 368.607641 425.687312 
L 373.523631 429.288666 
L 378.439621 432.513219 
L 383.355611 435.361204 
L 388.271602 437.84195 
L 393.187592 439.972315 
L 398.103582 441.775128 
L 403.019572 443.277669 
L 407.935562 444.510212 
L 412.851553 445.504643 
L 417.767543 446.29319 
L 422.683533 446.907289 
L 430.057518 447.565629 
L 437.431504 447.986807 
L 447.263484 448.3036 
L 462.011455 448.494507 
L 469.38544 448.529268 
L 469.38544 448.529268 
" clip-path="url(#p9950f874a0)" style="fill: none; stroke: #ff0000; stroke-width: 1.5; stroke-linecap: square"/>
   </g>
   <g id="patch_59">
    <path d="M 63 448.56 
L 63 60.48 
" style="fill: none; stroke: #000000; stroke-width: 0.8; stroke-linejoin: miter; stroke-linecap: square"/>
   </g>
   <g id="patch_60">
    <path d="M 453.6 448.56 
L 453.6 60.48 
" style="fill: none; stroke: #000000; stroke-width: 0.8; stroke-linejoin: miter; stroke-linecap: square"/>
   </g>
   <g id="patch_61">
    <path d="M 63 448.56 
L 453.6 448.56 
" style="fill: none; stroke: #000000; stroke-width: 0.8; stroke-linejoin: miter; stroke-linecap: square"/>
   </g>
   <g id="patch_62">
    <path d="M 63 60.48 
L 453.6 60.48 
" style="fill: none; stroke: #000000; stroke-width: 0.8; stroke-linejoin: miter; stroke-linecap: square"/>
   </g>
   <g id="text_17">
    <!-- No Stroke vs Stroke by Average Glucose Level -->
    <g transform="translate(120.143438 54.48)scale(0.12 -0.12)">
     <defs>
      <path id="DejaVuSans-4e" d="M 628 4666 
L 1478 4666 
L 3547 763 
L 3547 4666 
L 4159 4666 
L 4159 0 
L 3309 0 
L 1241 3903 
L 1241 0 
L 628 0 
L 628 4666 
z
" transform="scale(0.015625)"/>
      <path id="DejaVuSans-53" d="M 3425 4513 
L 3425 3897 
Q 3066 4069 2747 4153 
Q 2428 4238 2131 4238 
Q 1616 4238 1336 4038 
Q 1056 3838 1056 3469 
Q 1056 3159 1242 3001 
Q 1428 2844 1947 2747 
L 2328 2669 
Q 3034 2534 3370 2195 
Q 3706 1856 3706 1288 
Q 3706 609 3251 259 
Q 2797 -91 1919 -91 
Q 1588 -91 1214 -16 
Q 841 59 441 206 
L 441 856 
Q 825 641 1194 531 
Q 1563 422 1919 422 
Q 2459 422 2753 634 
Q 3047 847 3047 1241 
Q 3047 1584 2836 1778 
Q 2625 1972 2144 2069 
L 1759 2144 
Q 1053 2284 737 2584 
Q 422 2884 422 3419 
Q 422 4038 858 4394 
Q 1294 4750 2059 4750 
Q 2388 4750 2728 4690 
Q 3069 4631 3425 4513 
z
" transform="scale(0.015625)"/>
      <path id="DejaVuSans-6b" d="M 581 4863 
L 1159 4863 
L 1159 1991 
L 2875 3500 
L 3609 3500 
L 1753 1863 
L 3688 0 
L 2938 0 
L 1159 1709 
L 1159 0 
L 581 0 
L 581 4863 
z
" transform="scale(0.015625)"/>
      <path id="DejaVuSans-62" d="M 3116 1747 
Q 3116 2381 2855 2742 
Q 2594 3103 2138 3103 
Q 1681 3103 1420 2742 
Q 1159 2381 1159 1747 
Q 1159 1113 1420 752 
Q 1681 391 2138 391 
Q 2594 391 2855 752 
Q 3116 1113 3116 1747 
z
M 1159 2969 
Q 1341 3281 1617 3432 
Q 1894 3584 2278 3584 
Q 2916 3584 3314 3078 
Q 3713 2572 3713 1747 
Q 3713 922 3314 415 
Q 2916 -91 2278 -91 
Q 1894 -91 1617 61 
Q 1341 213 1159 525 
L 1159 0 
L 581 0 
L 581 4863 
L 1159 4863 
L 1159 2969 
z
" transform="scale(0.015625)"/>
     </defs>
     <use xlink:href="#DejaVuSans-4e"/>
     <use xlink:href="#DejaVuSans-6f" x="74.804688"/>
     <use xlink:href="#DejaVuSans-20" x="135.986328"/>
     <use xlink:href="#DejaVuSans-53" x="167.773438"/>
     <use xlink:href="#DejaVuSans-74" x="231.25"/>
     <use xlink:href="#DejaVuSans-72" x="270.458984"/>
     <use xlink:href="#DejaVuSans-6f" x="309.322266"/>
     <use xlink:href="#DejaVuSans-6b" x="370.503906"/>
     <use xlink:href="#DejaVuSans-65" x="424.789062"/>
     <use xlink:href="#DejaVuSans-20" x="486.3125"/>
     <use xlink:href="#DejaVuSans-76" x="518.099609"/>
     <use xlink:href="#DejaVuSans-73" x="577.279297"/>
     <use xlink:href="#DejaVuSans-20" x="629.378906"/>
     <use xlink:href="#DejaVuSans-53" x="661.166016"/>
     <use xlink:href="#DejaVuSans-74" x="724.642578"/>
     <use xlink:href="#DejaVuSans-72" x="763.851562"/>
     <use xlink:href="#DejaVuSans-6f" x="802.714844"/>
     <use xlink:href="#DejaVuSans-6b" x="863.896484"/>
     <use xlink:href="#DejaVuSans-65" x="918.181641"/>
     <use xlink:href="#DejaVuSans-20" x="979.705078"/>
     <use xlink:href="#DejaVuSans-62" x="1011.492188"/>
     <use xlink:href="#DejaVuSans-79" x="1074.96875"/>
     <use xlink:href="#DejaVuSans-20" x="1134.148438"/>
     <use xlink:href="#DejaVuSans-41" x="1165.935547"/>
     <use xlink:href="#DejaVuSans-76" x="1228.46875"/>
     <use xlink:href="#DejaVuSans-65" x="1287.648438"/>
     <use xlink:href="#DejaVuSans-72" x="1349.171875"/>
     <use xlink:href="#DejaVuSans-61" x="1390.285156"/>
     <use xlink:href="#DejaVuSans-67" x="1451.564453"/>
     <use xlink:href="#DejaVuSans-65" x="1515.041016"/>
     <use xlink:href="#DejaVuSans-20" x="1576.564453"/>
     <use xlink:href="#DejaVuSans-47" x="1608.351562"/>
     <use xlink:href="#DejaVuSans-6c" x="1685.841797"/>
     <use xlink:href="#DejaVuSans-75" x="1713.625"/>
     <use xlink:href="#DejaVuSans-63" x="1777.003906"/>
     <use xlink:href="#DejaVuSans-6f" x="1831.984375"/>
     <use xlink:href="#DejaVuSans-73" x="1893.166016"/>
     <use xlink:href="#DejaVuSans-65" x="1945.265625"/>
     <use xlink:href="#DejaVuSans-20" x="2006.789062"/>
     <use xlink:href="#DejaVuSans-4c" x="2038.576172"/>
     <use xlink:href="#DejaVuSans-65" x="2092.539062"/>
     <use xlink:href="#DejaVuSans-76" x="2154.0625"/>
     <use xlink:href="#DejaVuSans-65" x="2213.242188"/>
     <use xlink:href="#DejaVuSans-6c" x="2274.765625"/>
    </g>
   </g>
   <g id="legend_1">
    <g id="patch_63">
     <path d="M 359.570312 97.83625 
L 446.6 97.83625 
Q 448.6 97.83625 448.6 95.83625 
L 448.6 67.48 
Q 448.6 65.48 446.6 65.48 
L 359.570312 65.48 
Q 357.570312 65.48 357.570312 67.48 
L 357.570312 95.83625 
Q 357.570312 97.83625 359.570312 97.83625 
z
" style="fill: #ffffff; opacity: 0.8; stroke: #cccccc; stroke-linejoin: miter"/>
    </g>
    <g id="patch_64">
     <path d="M 361.570312 77.078438 
L 381.570312 77.078438 
L 381.570312 70.078438 
L 361.570312 70.078438 
z
" style="opacity: 0.4"/>
    </g>
    <g id="text_18">
     <!-- No Stroke -->
     <g transform="translate(389.570312 77.078438)scale(0.1 -0.1)">
      <use xlink:href="#DejaVuSans-4e"/>
      <use xlink:href="#DejaVuSans-6f" x="74.804688"/>
      <use xlink:href="#DejaVuSans-20" x="135.986328"/>
      <use xlink:href="#DejaVuSans-53" x="167.773438"/>
      <use xlink:href="#DejaVuSans-74" x="231.25"/>
      <use xlink:href="#DejaVuSans-72" x="270.458984"/>
      <use xlink:href="#DejaVuSans-6f" x="309.322266"/>
      <use xlink:href="#DejaVuSans-6b" x="370.503906"/>
      <use xlink:href="#DejaVuSans-65" x="424.789062"/>
     </g>
    </g>
    <g id="patch_65">
     <path d="M 361.570312 91.756563 
L 381.570312 91.756563 
L 381.570312 84.756563 
L 361.570312 84.756563 
z
" style="fill: #ff0000; opacity: 0.4"/>
    </g>
    <g id="text_19">
     <!-- Had Stroke -->
     <g transform="translate(389.570312 91.756563)scale(0.1 -0.1)">
      <defs>
       <path id="DejaVuSans-48" d="M 628 4666 
L 1259 4666 
L 1259 2753 
L 3553 2753 
L 3553 4666 
L 4184 4666 
L 4184 0 
L 3553 0 
L 3553 2222 
L 1259 2222 
L 1259 0 
L 628 0 
L 628 4666 
z
" transform="scale(0.015625)"/>
       <path id="DejaVuSans-64" d="M 2906 2969 
L 2906 4863 
L 3481 4863 
L 3481 0 
L 2906 0 
L 2906 525 
Q 2725 213 2448 61 
Q 2172 -91 1784 -91 
Q 1150 -91 751 415 
Q 353 922 353 1747 
Q 353 2572 751 3078 
Q 1150 3584 1784 3584 
Q 2172 3584 2448 3432 
Q 2725 3281 2906 2969 
z
M 947 1747 
Q 947 1113 1208 752 
Q 1469 391 1925 391 
Q 2381 391 2643 752 
Q 2906 1113 2906 1747 
Q 2906 2381 2643 2742 
Q 2381 3103 1925 3103 
Q 1469 3103 1208 2742 
Q 947 2381 947 1747 
z
" transform="scale(0.015625)"/>
      </defs>
      <use xlink:href="#DejaVuSans-48"/>
      <use xlink:href="#DejaVuSans-61" x="75.195312"/>
      <use xlink:href="#DejaVuSans-64" x="136.474609"/>
      <use xlink:href="#DejaVuSans-20" x="199.951172"/>
      <use xlink:href="#DejaVuSans-53" x="231.738281"/>
      <use xlink:href="#DejaVuSans-74" x="295.214844"/>
      <use xlink:href="#DejaVuSans-72" x="334.423828"/>
      <use xlink:href="#DejaVuSans-6f" x="373.287109"/>
      <use xlink:href="#DejaVuSans-6b" x="434.46875"/>
      <use xlink:href="#DejaVuSans-65" x="488.753906"/>
     </g>
    </g>
   </g>
  </g>
 </g>
 <defs>
  <clipPath id="p9950f874a0">
   <rect x="63" y="60.48" width="390.6" height="388.08"/>
  </clipPath>
 </defs>
</svg>
